# xmcd CD database file
#
# Track frame offsets:
#	150
#	12954
#	25658
#	38842
#	51341
#	62887
#	74247
#	88079
#	102415
#	114458
#	128243
#	139831
#	151521
#	164248
#	176760
#	189884
#	203458
#	215640
#	228884
#	243226
#
# Disc length: 3402 seconds
#
# Revision: 0
# Processed by: cddbd v1.5.1PL0 Copyright (c) Steve Scherf et al.
# Submitted via: CDex 1.51
#
DISCID=1a0d4814
DTITLE=Various Artist - Cajun - Hot Stuff
DYEAR=1999
DGENRE=Country
TTITLE0=Columbus Fruge - Saute Crapaud !
TTITLE1=Falcon Trio - Mon vieux d´autrefois
TTITLE2=Leo Soileau and Mayuse Lafleur - Mama, where are you at ?
TTITLE3=Delin T. Guillory and Lewis Lafleur - Quelqu´un est jaloux
TTITLE4=Hackberry Ramblers - Et là bas
TTITLE5=Happy Fats and His Rayne-Bo Ramblers - La veuve de la Coulée
TTITLE6=Oscar Doucet and Alius Alius Soileau - O Bébé !
TTITLE7=Arteleus Mistric - Belle of Point Claire
TTITLE8=Hackberry Ramblers - Jolie Blonde
TTITLE9=Floyd Shreve and The Three Aces - Lonesome Blues
TTITLE10=Berthemost Montet and Joswell Dupuis - L´ Abandoner
TTITLE11=Rayne-Bo Ramblers - Valse de Marie Buller
TTITLE12=Delin T. Guillory and Lewis Lafleur - Stop that
TTITLE13=Thibodeaux Boys - Two-Step A´Erby
TTITLE14=Joe WErner and Ramblers - Crap Shooters Hop
TTITLE15=Lawrence Walker - Alberta
TTITLE16=J B Fuselier and His Merrymakers - Ma chère Bouclette
TTITLE17=Hackberry Ramblers - Je vas t´ aimer
TTITLE18=Happy Fats and His Rayne-Bo Ramblers - La response de Blues de Bosco
TTITLE19=Millers Merrymakers - Lake Arthur stomp
EXTD=YEAR: 1999
EXTT0=
EXTT1=
EXTT2=
EXTT3=
EXTT4=
EXTT5=
EXTT6=
EXTT7=
EXTT8=
EXTT9=
EXTT10=
EXTT11=
EXTT12=
EXTT13=
EXTT14=
EXTT15=
EXTT16=
EXTT17=
EXTT18=
EXTT19=
PLAYORDER=
